<?xml version="1.0" encoding="UTF-8"?>
<!DOCTYPE svg PUBLIC "-//W3C//DTD SVG 1.1//EN" "http://www.w3.org/Graphics/SVG/1.1/DTD/svg11.dtd">
<svg version="1.1" id="Layer_1" xmlns="http://www.w3.org/2000/svg" xmlns:xlink="http://www.w3.org/1999/xlink" x="0px" y="0px" width="495px" height="495px" viewBox="-164.5 -164.5 495 495" enable-background="new -164.5 -164.5 495 495" xml:space="preserve">
<path fill="none" stroke="#0000CC" stroke-width="2" d="M84-74.191C126.635-0.334,175.152,69.961,229.08,136.02"/>
<path fill="none" stroke="#0000CC" stroke-width="2" d="M156.121-56.398c3.43,85.209,13.723,170.004,30.777,253.559"/>
<path fill="none" stroke="#0000CC" stroke-width="2" d="M211.709-7.141c-36.555,77.037-66.844,156.898-90.568,238.801"/>
<path fill="none" stroke="#0000CC" stroke-width="2" d="M238.051,62.309C169.873,113.531,105.938,170.164,46.859,231.66"/>
<path fill="none" stroke="#0000CC" stroke-width="2" d="M229.08,136.02C144.91,149.705,61.984,170.15-18.898,197.16"/>
<path fill="none" stroke="#0000CC" stroke-width="2" d="M186.898,197.16C106.016,170.15,23.09,149.705-61.078,136.02"/>
<path fill="none" stroke="#0000CC" stroke-width="2" d="M121.141,231.66C62.062,170.164-1.875,113.531-70.049,62.309"/>
<path fill="none" stroke="#0000CC" stroke-width="2" d="M46.859,231.66C23.133,149.758-7.154,69.896-43.711-7.141"/>
<path fill="none" stroke="#0000CC" stroke-width="2" d="M-18.898,197.16C-1.846,113.605,8.449,28.811,11.879-56.398"/>
<path fill="none" stroke="#0000CC" stroke-width="2" d="M-61.078,136.02C-7.152,69.961,41.367-0.336,84-74.191"/>
<path fill="none" stroke="#0000CC" stroke-width="2" d="M-70.049,62.309C8.408,28.881,84.043-10.816,156.121-56.398"/>
<path fill="none" stroke="#0000CC" stroke-width="2" d="M-43.711-7.141c85.002,6.863,170.42,6.863,255.42,0"/>
<path fill="none" stroke="#0000CC" stroke-width="2" d="M11.879-56.398c72.08,45.582,147.715,85.279,226.172,118.707"/>
<path fill="none" stroke="#0000CC" stroke-width="2" d="M156.121-56.398C133.875-68.08,109.125-74.186,84-74.191"/>
<path fill="none" stroke="#0000CC" stroke-width="2" d="M211.709-7.141c-14.268-20.676-33.346-37.582-55.588-49.258"/>
<path fill="none" stroke="#0000CC" stroke-width="2" d="M238.051,62.309c-3.029-24.938-12.068-48.773-26.342-69.449"/>
<path fill="none" stroke="#0000CC" stroke-width="2" d="M229.08,136.02c8.91-23.48,11.99-48.777,8.971-73.711"/>
<path fill="none" stroke="#0000CC" stroke-width="2" d="M186.898,197.16c18.805-16.664,33.277-37.646,42.182-61.141"/>
<path fill="none" stroke="#0000CC" stroke-width="2" d="M121.141,231.66c24.389-6.008,46.955-17.848,65.758-34.5"/>
<path fill="none" stroke="#0000CC" stroke-width="2" d="M46.859,231.66c24.396,6.012,49.887,6.012,74.281,0"/>
<path fill="none" stroke="#0000CC" stroke-width="2" d="M-18.898,197.16c18.805,16.652,41.369,28.492,65.758,34.5"/>
<path fill="none" stroke="#0000CC" stroke-width="2" d="M-61.078,136.02c8.9,23.494,23.375,44.477,42.18,61.141"/>
<path fill="none" stroke="#0000CC" stroke-width="2" d="M-70.049,62.309c-3.021,24.934,0.059,50.23,8.971,73.711"/>
<path fill="none" stroke="#0000CC" stroke-width="2" d="M-43.711-7.141C-57.984,13.535-67.02,37.371-70.049,62.309"/>
<path fill="none" stroke="#0000CC" stroke-width="2" d="M11.879-56.398c-22.244,11.676-41.32,28.582-55.59,49.258"/>
<path fill="none" stroke="#0000CC" stroke-width="2" d="M84-74.191c-25.125,0.006-49.875,6.111-72.121,17.793"/>
<path fill="none" stroke="#0000CC" stroke-width="2" d="M84-74.191c29.02-50.227,93.26-67.418,143.486-38.396  c50.225,29.018,67.418,93.258,38.396,143.484c-7.068,12.236-16.535,22.922-27.832,31.412"/>
<path fill="none" stroke="#0000CC" stroke-width="2" d="M156.121-56.398c49.008-31.031,113.893-16.457,144.924,32.551  C332.074,25.16,317.5,90.045,268.492,121.076c-11.994,7.592-25.4,12.678-39.412,14.943"/>
<path fill="none" stroke="#0000CC" stroke-width="2" d="M211.709-7.141c57.818-4.684,108.486,38.387,113.172,96.203  s-38.385,108.484-96.203,113.172c-14.125,1.145-28.338-0.582-41.779-5.074"/>
<path fill="none" stroke="#0000CC" stroke-width="2" d="M238.051,62.309c53.379,22.703,78.246,84.379,55.547,137.76  c-22.703,53.379-84.379,78.248-137.758,55.545c-13.066-5.555-24.871-13.705-34.699-23.953"/>
<path fill="none" stroke="#0000CC" stroke-width="2" d="M229.08,136.02c36.709,44.914,30.059,111.082-14.855,147.791  s-111.08,30.057-147.791-14.857c-8.977-10.98-15.633-23.668-19.574-37.293"/>
<path fill="none" stroke="#0000CC" stroke-width="2" d="M186.898,197.16c11.625,56.83-25.023,112.322-81.854,123.945  C48.217,332.727-7.277,296.08-18.898,239.25c-2.84-13.887-2.84-28.203,0-42.09"/>
<path fill="none" stroke="#0000CC" stroke-width="2" d="M121.141,231.66c-16.113,55.725-74.348,87.836-130.07,71.725  s-87.838-74.346-71.725-130.07c3.938-13.627,10.6-26.311,19.576-37.295"/>
<path fill="none" stroke="#0000CC" stroke-width="2" d="M46.859,231.66c-40.15,41.865-106.637,43.256-148.502,3.105  c-41.865-40.148-43.256-106.637-3.105-148.5c9.826-10.25,21.633-18.396,34.699-23.957"/>
<path fill="none" stroke="#0000CC" stroke-width="2" d="M-18.898,197.16c-55.018,18.387-114.52-11.305-132.91-66.318  c-18.389-55.016,11.307-114.521,66.32-132.91c13.441-4.49,27.65-6.217,41.777-5.072"/>
<path fill="none" stroke="#0000CC" stroke-width="2" d="M-61.078,136.02c-57.264-9.264-96.176-63.193-86.91-120.457  c9.266-57.262,63.195-96.17,120.455-86.906c14.016,2.268,27.422,7.352,39.412,14.945"/>
<path fill="none" stroke="#0000CC" stroke-width="2" d="M-70.049,62.309c-46.371-34.852-55.705-100.693-20.85-147.064  c34.854-46.365,100.695-55.699,147.062-20.848C67.461-97.113,76.928-86.426,84-74.191"/>
<path fill="none" stroke="#0000CC" stroke-width="2" d="M-43.711-7.141c-24.873-52.402-2.551-115.047,49.852-139.918  c52.402-24.873,115.047-2.555,139.918,49.848c6.07,12.789,9.492,26.67,10.062,40.812"/>
<path fill="none" stroke="#0000CC" stroke-width="2" d="M11.879-56.398c2.336-57.959,51.211-103.053,109.172-100.721  c57.959,2.332,103.053,51.211,100.719,109.17c-0.57,14.141-3.992,28.021-10.061,40.809"/>
<path fill="#FAFAFA" stroke="#333333" stroke-width="2" d="M84-51.691c-12.428,0-22.5-10.072-22.5-22.5  c0-12.422,10.072-22.5,22.5-22.5c12.425,0,22.5,10.078,22.5,22.5C106.5-61.764,96.425-51.691,84-51.691z"/>
<path fill="#FAFAFA" stroke="#333333" stroke-width="2" d="M156.121-33.898c-12.428,0-22.5-10.078-22.5-22.5  c0-12.428,10.072-22.5,22.5-22.5c12.425,0,22.5,10.072,22.5,22.5C178.621-43.977,168.546-33.898,156.121-33.898z"/>
<circle fill="#FAFAFA" stroke="#333333" stroke-width="2" cx="211.709" cy="-7.141" r="22.5"/>
<path fill="#FAFAFA" stroke="#333333" stroke-width="2" d="M238.051,84.809c-12.428,0-22.5-10.072-22.5-22.5  c0-12.422,10.072-22.5,22.5-22.5c12.425,0,22.5,10.078,22.5,22.5C260.551,74.736,250.476,84.809,238.051,84.809z"/>
<circle fill="#FAFAFA" stroke="#333333" stroke-width="2" cx="229.08" cy="136.02" r="22.5"/>
<circle fill="#FAFAFA" stroke="#333333" stroke-width="2" cx="186.898" cy="197.16" r="22.5"/>
<circle fill="#FAFAFA" stroke="#333333" stroke-width="2" cx="121.141" cy="231.66" r="22.5"/>
<circle fill="#FAFAFA" stroke="#333333" stroke-width="2" cx="46.859" cy="231.66" r="22.5"/>
<path fill="#FAFAFA" stroke="#333333" stroke-width="2" d="M-18.898,219.66c-12.428,0-22.5-10.072-22.5-22.5s10.072-22.5,22.5-22.5  c12.422,0,22.5,10.072,22.5,22.5S-6.477,219.66-18.898,219.66z"/>
<path fill="#FAFAFA" stroke="#333333" stroke-width="2" d="M-61.078,158.52c-12.428,0-22.5-10.072-22.5-22.5  c0-12.425,10.072-22.5,22.5-22.5c12.422,0,22.5,10.075,22.5,22.5C-38.578,148.447-48.656,158.52-61.078,158.52z"/>
<path fill="#FAFAFA" stroke="#333333" stroke-width="2" d="M-70.049,84.809c-12.428,0-22.5-10.072-22.5-22.5  c0-12.422,10.072-22.5,22.5-22.5s22.5,10.078,22.5,22.5C-47.549,74.736-57.621,84.809-70.049,84.809z"/>
<circle fill="#FAFAFA" stroke="#333333" stroke-width="2" cx="-43.711" cy="-7.141" r="22.5"/>
<path fill="#FAFAFA" stroke="#333333" stroke-width="2" d="M11.879-33.898c-12.422,0-22.5-10.078-22.5-22.5  c0-12.428,10.078-22.5,22.5-22.5c12.425,0,22.5,10.072,22.5,22.5C34.379-43.977,24.304-33.898,11.879-33.898z"/>
<text transform="matrix(1 0 0 1 75 -63.1914)" fill="#680000" font-family="Liberation Serif" font-style="normal" font-size="36">0</text>
<text transform="matrix(1 0 0 1 -6.1211 -45.3984)" fill="#680000" font-family="Liberation Serif" font-style="normal" font-size="36">12</text>
<text transform="matrix(1 0 0 1 -61.7109 3.8594)" fill="#680000" font-family="Liberation Serif" font-style="normal" font-size="36">11</text>
<text transform="matrix(1 0 0 1 -88.0488 73.3086)" fill="#680000" font-family="Liberation Serif" font-style="normal" font-size="36">10</text>
<text transform="matrix(1 0 0 1 -70.0781 147.0195)" fill="#680000" font-family="Liberation Serif" font-style="normal" font-size="36">9</text>
<text transform="matrix(1 0 0 1 -28.5 208)" fill="#680000" font-family="Liberation Serif" font-style="normal" font-size="36">8</text>
<text transform="matrix(1 0 0 1 38 242)" fill="#680000" font-family="Liberation Serif" font-style="normal" font-size="36">7</text>
<text transform="matrix(1 0 0 1 112 242.5)" fill="#680000" font-family="Liberation Serif" font-style="normal" font-size="36">6</text>
<text transform="matrix(1 0 0 1 177.8984 208.1602)" fill="#680000" font-family="Liberation Serif" font-style="normal" font-size="36">5</text>
<text transform="matrix(1 0 0 1 220.0801 147.0195)" fill="#680000" font-family="Liberation Serif" font-style="normal" font-size="36">4</text>
<text transform="matrix(1 0 0 1 229.0508 73.3086)" fill="#680000" font-family="Liberation Serif" font-style="normal" font-size="36">3</text>
<text transform="matrix(1 0 0 1 202.709 3.8594)" fill="#680000" font-family="Liberation Serif" font-style="normal" font-size="36">2</text>
<text transform="matrix(1 0 0 1 147.1211 -45.3984)" fill="#680000" font-family="Liberation Serif" font-style="normal" font-size="36">1</text>
</svg>